<svg id="svg" version="1.1" width="512" height="512" xmlns="http://www.w3.org/2000/svg"><path d="M43.015 97.214 C 40.544 99.867,39.525 103.560,37.971 115.500 C 37.327 120.450,36.428 126.750,35.973 129.500 C 34.850 136.288,34.906 151.388,36.077 157.500 C 36.603 160.250,37.523 165.875,38.121 170.000 C 38.719 174.125,40.061 179.903,41.104 182.839 C 42.147 185.775,43.000 188.838,43.000 189.644 C 43.000 192.839,55.267 217.803,60.127 224.500 C 61.724 226.700,65.018 231.221,67.448 234.547 C 79.884 251.573,105.277 270.099,127.795 278.575 C 136.298 281.775,151.675 282.791,165.420 281.061 C 176.961 279.609,177.382 279.819,180.633 288.684 C 183.815 297.359,187.000 308.369,187.000 310.691 C 187.000 311.818,187.900 315.557,189.000 319.000 C 190.100 322.443,191.011 327.114,191.024 329.380 C 191.036 331.646,191.894 336.681,192.928 340.570 C 194.672 347.122,195.557 365.240,195.105 385.159 L 195.000 389.817 187.750 385.064 C 177.110 378.088,171.629 375.639,160.722 372.989 C 151.147 370.663,150.793 370.648,143.722 372.270 C 132.553 374.833,129.978 375.098,123.512 374.351 L 117.500 373.657 125.500 371.860 C 136.128 369.472,164.252 369.243,169.654 371.500 C 176.519 374.368,181.000 373.040,181.000 368.138 C 181.000 365.706,177.475 358.823,173.778 354.035 C 171.021 350.465,162.536 344.319,156.084 341.218 C 150.778 338.668,149.777 338.538,136.000 338.628 C 124.989 338.700,120.570 339.116,117.636 340.358 C 115.511 341.257,111.236 342.441,108.136 342.988 C 105.036 343.535,100.039 344.661,97.032 345.491 C 93.193 346.551,86.715 347.000,75.282 347.000 C 60.333 347.000,58.836 347.164,57.000 349.000 C 54.277 351.723,54.473 353.953,58.126 361.792 C 67.477 381.862,79.519 394.521,99.017 404.781 C 113.356 412.325,118.270 413.420,137.500 413.350 C 156.855 413.280,160.711 412.270,170.952 404.589 C 173.951 402.340,176.978 400.146,177.680 399.713 C 179.377 398.665,183.448 400.872,189.250 405.984 C 193.640 409.853,194.000 410.523,193.999 414.835 C 193.997 424.999,187.213 436.046,179.720 438.088 C 160.326 443.371,139.794 451.761,131.000 457.996 C 119.320 466.276,111.581 468.947,99.000 469.038 C 86.532 469.128,59.816 471.479,57.500 472.691 C 56.400 473.266,53.700 474.048,51.500 474.428 C 44.462 475.643,19.336 483.921,10.439 487.955 C 6.745 489.630,2.886 491.000,1.862 491.000 C 0.164 491.000,0.000 491.927,0.000 501.500 L 0.000 512.000 256.000 512.000 L 512.000 512.000 512.000 499.500 L 512.000 487.000 509.250 486.991 C 507.738 486.986,502.000 485.382,496.500 483.425 C 491.000 481.469,484.700 479.403,482.500 478.833 C 480.300 478.264,477.082 477.168,475.349 476.399 C 473.616 475.629,471.480 475.000,470.603 475.000 C 469.726 475.000,466.419 474.145,463.254 473.100 C 455.461 470.527,425.180 467.604,415.222 468.463 C 405.098 469.337,396.723 467.407,390.709 462.815 C 386.374 459.505,366.555 449.298,356.500 445.198 C 340.401 438.633,313.327 432.016,294.500 430.045 C 289.000 429.469,282.250 428.576,279.500 428.059 C 276.750 427.542,268.967 427.092,262.205 427.060 C 246.371 426.983,245.617 426.419,244.714 413.959 C 243.978 403.800,245.274 386.254,247.009 382.907 C 248.996 379.075,251.163 377.000,253.180 377.000 C 254.208 377.000,258.076 378.520,261.775 380.377 C 273.891 386.461,281.140 388.722,294.094 390.458 C 303.816 391.760,308.035 391.913,312.594 391.128 C 315.842 390.569,322.100 389.823,326.500 389.470 C 340.349 388.361,354.366 383.239,380.000 369.919 C 392.353 363.501,411.507 348.691,424.500 335.512 C 450.047 309.600,468.984 279.107,478.848 248.000 C 483.337 233.843,485.647 222.474,487.990 203.000 C 489.499 190.461,489.223 149.284,487.589 142.960 C 486.812 139.957,485.877 135.475,485.511 133.000 C 484.763 127.951,483.535 125.878,480.259 124.133 C 477.403 122.612,475.071 123.770,463.848 132.282 C 440.856 149.721,410.582 165.637,386.500 172.946 C 382.650 174.114,376.800 175.955,373.500 177.035 C 370.200 178.116,366.374 179.000,364.997 179.000 C 363.620 179.000,359.346 179.900,355.500 181.000 C 351.654 182.100,347.101 183.000,345.383 183.000 C 343.666 183.000,339.443 183.900,336.000 185.000 C 332.557 186.100,328.561 187.015,327.120 187.034 C 325.679 187.053,322.700 187.937,320.500 189.000 C 318.300 190.063,315.721 190.947,314.770 190.966 C 309.924 191.061,279.650 205.684,272.500 211.384 C 270.300 213.138,267.150 215.422,265.500 216.460 C 255.452 222.784,239.368 242.414,232.283 257.000 C 227.086 267.700,223.000 278.079,223.000 280.582 C 223.000 281.640,222.100 285.654,221.000 289.500 C 219.671 294.148,219.018 299.346,219.055 304.997 C 219.118 314.915,222.911 334.339,225.238 336.667 C 227.749 339.178,231.606 337.573,234.699 332.731 C 248.650 310.889,253.059 305.936,268.000 295.325 C 276.621 289.202,287.633 282.937,294.000 280.532 C 295.925 279.804,299.975 278.231,303.000 277.035 C 310.392 274.111,318.535 271.190,324.000 269.500 C 337.803 265.232,363.524 255.245,372.483 250.675 C 375.224 249.277,377.670 248.336,377.918 248.585 C 378.904 249.570,370.046 257.455,362.143 262.626 C 357.547 265.633,343.597 273.307,331.143 279.679 C 295.822 297.751,287.383 302.709,273.000 313.838 C 260.300 323.664,254.166 329.744,246.100 340.500 C 238.397 350.772,232.958 359.890,227.458 371.750 C 225.354 376.288,223.322 380.000,222.941 380.000 C 221.964 380.000,221.000 374.581,221.000 369.085 C 221.000 366.519,220.368 361.963,219.595 358.960 C 218.822 355.957,217.888 349.450,217.520 344.500 C 217.153 339.550,216.215 333.475,215.438 331.000 C 214.660 328.525,213.624 323.125,213.134 319.000 C 212.228 311.369,209.761 299.926,207.852 294.500 C 207.271 292.850,206.212 289.250,205.500 286.500 C 202.693 275.673,192.253 252.830,187.565 247.260 C 186.154 245.583,185.000 243.780,185.000 243.254 C 185.000 240.885,170.506 225.825,164.178 221.618 C 156.676 216.631,140.208 208.632,133.000 206.474 C 121.255 202.958,99.782 187.268,94.849 178.598 C 93.381 176.018,94.924 176.662,106.418 183.426 C 111.453 186.390,125.457 193.732,137.536 199.742 C 160.909 211.372,164.437 213.265,172.425 218.468 C 179.029 222.769,188.950 233.174,192.481 239.500 C 197.489 248.476,200.399 250.463,204.961 248.021 C 208.114 246.334,209.000 241.304,209.000 225.093 C 209.000 210.309,208.842 209.036,206.007 201.020 C 204.361 196.366,201.854 190.263,200.435 187.459 C 195.613 177.929,178.818 160.234,169.771 155.152 C 160.935 150.189,154.273 147.002,152.719 146.994 C 152.049 146.990,150.179 146.299,148.565 145.457 C 146.952 144.616,144.027 143.524,142.065 143.031 C 132.005 140.504,105.350 130.630,94.000 125.227 C 82.750 119.872,65.090 107.905,55.793 99.338 C 50.336 94.309,46.340 93.645,43.015 97.214 " stroke="none" fill="#7ebf4a" fill-rule="evenodd"/></svg>